<svg width="36" height="35" viewBox="0 0 36 35" fill="none" xmlns="http://www.w3.org/2000/svg">
<path d="M17.9741 5.86312C23.0299 5.86312 27.5439 8.06376 30.4657 11.6476L35.9647 8.89685C31.9759 3.52102 25.41 0 17.9741 0C10.5547 0 3.98878 3.52102 0 8.88113L5.49894 11.6319C8.40434 8.06376 12.9184 5.86312 17.9741 5.86312Z" fill="#43EFC9"/>
<path d="M17.9741 30.1175C12.9184 30.1175 8.40434 27.7597 5.49894 24.333L0 27.0838C3.98878 32.4439 10.5547 35.9649 17.9741 35.9649C25.3936 35.9649 31.9595 32.4439 35.9647 27.0681L30.4657 24.3173C27.5439 27.7597 23.0463 30.1175 17.9741 30.1175Z" fill="#43EFC9"/>
<path d="M21.6017 24.2696V11.6946H20.7481L16.7922 11.6946L11.7528 11.6946V16.4102H16.6773V24.2696L21.6017 24.2696Z" fill="white"/>
</svg>
